<?xml version="1.0" standalone="no"?>
<!DOCTYPE svg PUBLIC "-//W3C//DTD SVG 20010904//EN"
 "http://www.w3.org/TR/2001/REC-SVG-20010904/DTD/svg10.dtd">
<svg version="1.0" xmlns="http://www.w3.org/2000/svg"
 width="128.000000pt" height="128.000000pt" viewBox="0 0 128.000000 128.000000"
 preserveAspectRatio="xMidYMid meet">
<metadata>
Created by potrace 1.14, written by Peter Selinger 2001-2017
</metadata>
<g transform="translate(0.000000,128.000000) scale(0.100000,-0.100000)"
fill="#000000" stroke="none">
<path d="M654 1197 c-26 -45 -34 -52 -60 -50 -173 12 -248 -6 -331 -82 -50
-44 -98 -120 -107 -168 -7 -41 -11 -43 -73 -46 -32 -1 -62 -6 -66 -10 -5 -5
23 -35 63 -67 48 -38 79 -73 96 -105 47 -93 109 -149 205 -184 l58 -21 -18
-40 c-20 -43 -38 -54 -128 -74 -62 -14 -100 -41 -118 -84 -15 -35 -13 -97 3
-137 12 -29 57 -69 78 -69 18 0 18 9 -1 53 -36 86 -14 111 121 138 110 23 130
31 162 68 l23 26 -7 -60 c-3 -33 -8 -74 -10 -92 -8 -62 27 -110 105 -145 58
-27 73 -12 36 36 -42 55 -44 105 -7 163 17 26 34 62 38 78 10 44 14 48 32 32
21 -17 47 -27 87 -34 17 -2 41 -6 55 -8 59 -10 103 -69 102 -136 -1 -52 21
-51 42 1 46 115 -12 221 -141 258 -41 12 -63 35 -24 25 10 -2 52 7 92 22 41
15 92 31 114 36 64 16 95 -10 111 -95 9 -49 20 -53 40 -15 32 64 -2 167 -71
209 -43 26 -94 27 -165 2 -64 -22 -78 -21 -124 7 -43 27 -48 41 -33 93 29 101
2 223 -68 307 -19 22 -32 57 -45 117 -9 47 -22 90 -27 95 -5 5 -21 -11 -39
-44z"/>
</g>
</svg>
